<?xml version="1.0" encoding="utf-8"?>
<!-- Generator: Adobe Illustrator 22.1.0, SVG Export Plug-In . SVG Version: 6.00 Build 0)  -->
<svg version="1.1" id="Capa_1" xmlns="http://www.w3.org/2000/svg" xmlns:xlink="http://www.w3.org/1999/xlink" x="0px" y="0px"
	 viewBox="0 0 500 193" style="enable-background:new 0 0 500 193;" xml:space="preserve">
<style type="text/css">
	.st0{fill:#FFFFFF;}
</style>
<title>horizontal-white-transparent</title>
<polygon class="st0" points="230,57.4 214.4,36.8 214.3,36.6 208,36.6 208,81.6 213.7,81.6 213.7,45.6 230,66.3 246.1,45.6 
	246.1,81.6 251.8,81.6 251.8,36.6 245.4,36.6 "/>
<path class="st0" d="M287.4,36.6h-6.8l-19.1,45h6.3l5.4-12.9h21.5l5.4,12.9h6.3l-19-44.8L287.4,36.6z M292.6,63.5h-17l8.4-20.4
	L292.6,63.5z"/>
<path class="st0" d="M346,62.5c4.7-2.1,7.1-6,7.1-11.6c0-4.4-1.4-7.9-4.2-10.4s-6.5-3.8-11.1-3.8h-21.5v45h5.7v-17h14.9l10.6,16.8
	l0.1,0.2h6.8l-11.7-18C343.8,63.3,344.9,63,346,62.5z M322,42.1h15.3c2.7-0.1,5.3,0.7,7.4,2.4c2.8,2.7,3.6,7,1.8,10.5
	c-1.7,2.8-4.9,4.3-9.5,4.3h-15V42.1z"/>
<path class="st0" d="M395.2,58.6c3.6-1.9,5.4-5.3,5.4-9.9c0.1-3-1.1-5.9-3.2-8.1c-2.5-2.6-6.3-4-11.1-4h-20.2v45h21.4
	c2.3,0,4.6-0.3,6.7-0.9c5.8-1.8,8.8-5.5,8.8-11c0-1.5-0.2-3.1-0.8-4.5C400.9,62.1,398.4,59.7,395.2,58.6z M394.2,52.4
	c-1.3,2.7-3.9,4-7.9,4h-14.5V42.1h15c2.7,0,4.8,0.8,6.3,2.2c0.6,0.6,1.1,1.4,1.4,2.2c0.3,0.9,0.5,1.9,0.5,2.9
	C394.9,50.5,394.7,51.5,394.2,52.4z M371.8,61.7h15.6c3.2,0,5.8,0.8,7.5,2.3c1.5,1.3,2.4,3.2,2.3,5.2c0.1,2-0.8,3.9-2.3,5.1
	c-1.6,1.2-3.9,1.8-6.9,1.8h-16.2V61.7z"/>
<polygon class="st0" points="421.1,36.6 415.4,36.6 415.4,81.6 445.3,81.6 445.3,76.1 421.1,76.1 "/>
<polygon class="st0" points="456.1,81.6 489.4,81.6 489.4,76.1 461.8,76.1 461.8,61.9 486.5,61.9 486.5,56.3 461.8,56.3 461.8,42.1 
	489.4,42.1 489.4,36.6 456.1,36.6 "/>
<path class="st0" d="M242.4,127.9c-1.6-1-3.4-1.9-5.3-2.5c-1.9-0.6-3.9-1.2-5.9-1.7l-5.9-1.5c-1.7-0.4-3.5-0.9-5.1-1.6
	c-1.3-0.5-2.5-1.2-3.5-2.2c-0.8-0.7-1.2-1.6-1.3-2.7c0-1,0.1-2,0.4-2.9c0.3-0.9,0.9-1.8,1.7-2.4c1.1-0.9,2.3-1.5,3.7-1.9
	c1.9-0.6,3.9-0.8,5.9-0.8c2,0,4,0.2,5.9,0.7c4.4,1.3,6.8,3.7,7.2,7.4v0.3h6.2v-0.4c-0.1-3.7-1.9-7.2-4.9-9.5c-3.3-2.8-8-4.2-14-4.2
	s-10.5,1.3-13.5,3.7c-2.9,2.3-4.6,5.9-4.5,9.6c-0.1,2.5,0.8,4.9,2.5,6.7c1.7,1.7,3.8,3.1,6,4c2.5,1,5.1,1.8,7.8,2.4
	c2.8,0.6,5.4,1.3,7.7,2c2.1,0.6,4,1.4,5.8,2.6c1.4,0.9,2.3,2.5,2.2,4.2c0,5.3-4.2,7.9-12.8,7.9c-4.1,0-7.5-0.7-9.9-2.1
	c-2.7-1.4-4.4-4.1-4.5-7.1v-0.3H208v0.4c0.4,4.6,2.2,8.2,5.4,10.7c3.5,2.8,8.6,4.2,15.2,4.2c5.9,0,10.5-1.2,13.8-3.5
	c3.4-2.3,5.3-6.2,5.1-10.3C247.6,133.2,245.6,129.7,242.4,127.9z"/>
<polygon class="st0" points="260.3,150.2 295.5,150.2 295.5,144.4 266.4,144.4 266.4,129.3 292.4,129.3 292.4,123.4 266.4,123.4 
	266.4,108.5 295.5,108.5 295.5,102.6 260.3,102.6 "/>
<polygon class="st0" points="308.7,150.2 343.9,150.2 343.9,144.4 314.7,144.4 314.7,129.3 340.8,129.3 340.8,123.4 314.7,123.4 
	314.7,108.5 343.9,108.5 343.9,102.6 308.7,102.6 "/>
<path class="st0" d="M385.3,104.3c-2.6-1.1-5.4-1.6-8.2-1.6H357v47.6h20.1c2.8,0,5.6-0.5,8.2-1.6c2.6-1.1,5-2.7,7-4.7
	c4.4-4.5,6.7-10.4,6.7-17.5s-2.3-12.9-6.7-17.5C390.3,106.9,388,105.3,385.3,104.3z M363,108.4h13.9c4.5-0.1,8.8,1.8,11.7,5.3
	c5.8,7.5,5.8,18,0,25.4l0,0c-2.9,3.5-7.2,5.4-11.7,5.3H363V108.4z"/>
<path class="st0" d="M443,127.9c-1.6-1.1-3.4-1.9-5.3-2.5c-1.9-0.6-3.9-1.2-5.9-1.7l-5.9-1.5c-1.7-0.4-3.5-0.9-5.1-1.6
	c-1.3-0.5-2.5-1.2-3.5-2.2c-0.8-0.7-1.2-1.6-1.3-2.7c0-1,0.1-2,0.5-2.9c0.3-0.9,0.9-1.8,1.7-2.4c1.1-0.9,2.3-1.5,3.7-1.9
	c1.9-0.6,3.9-0.8,5.9-0.8c2,0,4,0.2,5.9,0.7c4.4,1.3,6.8,3.7,7.2,7.4v0.3h6.2v-0.4c-0.1-3.7-1.9-7.2-4.9-9.5c-3.3-2.8-8-4.2-14-4.2
	s-10.5,1.3-13.5,3.7c-2.9,2.3-4.6,5.9-4.5,9.6c-0.1,2.5,0.8,4.9,2.5,6.7c1.7,1.7,3.8,3,6.1,3.9c2.5,1,5.1,1.8,7.8,2.4
	c2.8,0.6,5.4,1.3,7.7,2c2.1,0.6,4,1.5,5.8,2.6c1.4,0.9,2.3,2.5,2.2,4.2c0,5.3-4.2,7.9-12.8,7.9c-4.1,0-7.5-0.7-9.9-2.1
	c-2.7-1.4-4.4-4.1-4.5-7.1v-0.3h-6.3v0.4c0.4,4.6,2.2,8.2,5.4,10.7c3.5,2.8,8.6,4.2,15.2,4.2c5.9,0,10.5-1.2,13.8-3.5
	c3.4-2.3,5.3-6.2,5.1-10.3C448.3,133.2,446.3,129.7,443,127.9z"/>
<path class="st0" d="M173.9,73.9l1.3-22.9c0-0.7-0.3-1.3-0.9-1.6L153.7,39l-10.3-20.5c-0.3-0.6-0.9-1-1.6-1l-22.9,1.4L99.6,6.2
	c-0.6-0.4-1.3-0.4-1.9,0L78.6,18.8l-22.9-1.4c-0.7,0-1.3,0.4-1.6,1L43.7,39L23.1,49.3c-0.6,0.3-1,1-1,1.6l1.4,22.9L10.9,93.1
	c-0.4,0.6-0.4,1.3,0,1.9l12.6,19.2l-1.4,22.9c0,0.7,0.3,1.3,1,1.6L43.7,149L54,169.6c0.3,0.6,1,1,1.6,1l22.9-1.4l19.2,12.6
	c0.3,0.2,0.6,0.3,1,0.3c0.4,0,0.7-0.1,1-0.3l19.2-12.6l22.9,1.4c0.7,0,1.3-0.3,1.6-1l10.2-20.6l20.6-10.3c0.6-0.3,1-1,0.9-1.6
	l-1.3-22.9L186.5,95c0.4-0.6,0.4-1.3,0-1.9L173.9,73.9z M170.7,112.7c-0.2,0.3-0.3,0.6-0.3,1l1.3,22.4l-20,10
	c-0.3,0.2-0.6,0.4-0.8,0.8l-10,20l-22.4-1.3c-0.4,0-0.7,0.1-1,0.3l-18.9,12.4L80,166c-0.3-0.2-0.6-0.3-1-0.3h-0.1L56.5,167l-10-20
	c-0.2-0.3-0.4-0.6-0.8-0.8l-20-10l1.2-22.4c0-0.4-0.1-0.7-0.3-1L14.4,94l12.3-18.7c0.2-0.3,0.3-0.7,0.3-1.1l-1.3-22.4l20-10
	c0.3-0.2,0.6-0.4,0.8-0.8l10-20l22.4,1.3c0.4,0,0.7-0.1,1-0.3L98.7,9.7L117.4,22c0.3,0.2,0.6,0.3,1,0.3l22.4-1.3l10,20
	c0.2,0.3,0.4,0.6,0.8,0.8l20,10l-1.3,22.4c0,0.4,0.1,0.7,0.3,1.1L183,94L170.7,112.7z"/>
<path class="st0" d="M126.4,85.3l-6.3-3.7v-7.3c0-0.9-0.8-1.7-1.7-1.7c0,0,0,0,0,0h-7.3l-3.7-6.3c-0.5-0.8-1.5-1.1-2.4-0.6l-6.3,3.6
	l-6.3-3.6c-0.8-0.5-1.9-0.2-2.4,0.6l-3.7,6.3H79c-0.9,0-1.7,0.8-1.7,1.7c0,0,0,0,0,0v7.3L71,85.3c-0.8,0.5-1.1,1.5-0.6,2.3
	c0,0,0,0,0,0L74,94l-3.7,6.3c-0.5,0.8-0.2,1.9,0.6,2.3c0,0,0,0,0,0l6.3,3.7v7.3c0,0.9,0.7,1.7,1.7,1.7h7.3l3.7,6.3
	c0.5,0.8,1.5,1.1,2.4,0.6l6.3-3.6l6.3,3.6c0.3,0.1,0.6,0.2,0.9,0.2c0.6,0,1.2-0.3,1.5-0.9l3.7-6.3h7.3c0.9,0,1.7-0.8,1.7-1.7
	c0,0,0,0,0,0v-7.3l6.3-3.7c0.8-0.5,1.1-1.5,0.6-2.3c0,0,0,0,0,0l-3.6-6.4l3.7-6.3C127.5,86.8,127.3,85.8,126.4,85.3
	C126.4,85.3,126.4,85.3,126.4,85.3z M119.9,94.8l3.3,5.7l-5.7,3.3c-0.5,0.3-0.9,0.9-0.9,1.5v6.7h-6.6c-0.6,0-1.2,0.3-1.5,0.9
	l-3.3,5.7l-5.7-3.3c-0.5-0.3-1.2-0.3-1.7,0l-5.7,3.3l-3.3-5.7c-0.3-0.5-0.9-0.9-1.5-0.9h-6.6v-6.6c0-0.6-0.3-1.2-0.9-1.5l-5.7-3.3
	l3.3-5.7c0.3-0.5,0.3-1.2,0-1.7l-3.3-5.7l5.7-3.3c0.5-0.3,0.9-0.9,0.9-1.5v-6.6h6.6c0.6,0,1.2-0.3,1.5-0.9l3.3-5.7l5.7,3.3
	c0.5,0.3,1.2,0.3,1.7,0l5.7-3.3l3.3,5.7c0.3,0.5,0.9,0.9,1.5,0.9h6.6v6.6c0,0.6,0.3,1.2,0.9,1.5l5.7,3.3l-3.3,5.7
	C119.6,93.7,119.6,94.3,119.9,94.8L119.9,94.8z"/>
<path class="st0" d="M119.2,19.1c-0.8-0.5-1.9-0.2-2.4,0.6l-26,45.1l-45-26c-0.8-0.5-1.9-0.2-2.4,0.6c-0.5,0.8-0.2,1.9,0.6,2.4
	l46.5,26.9c0.3,0.2,0.6,0.2,0.9,0.2c0.6,0,1.2-0.3,1.5-0.9l26.9-46.5C120.4,20.6,120.1,19.6,119.2,19.1
	C119.2,19.1,119.2,19.1,119.2,19.1z"/>
<path class="st0" d="M173,112.2l-45-26l26-45c0.5-0.8,0.2-1.9-0.6-2.4c-0.8-0.5-1.9-0.2-2.4,0.6l0,0L124.1,86
	c-0.5,0.8-0.2,1.9,0.6,2.4l46.5,26.9c0.3,0.1,0.6,0.2,0.9,0.2c1,0,1.7-0.8,1.7-1.7C173.9,113.1,173.6,112.5,173,112.2L173,112.2z"/>
<path class="st0" d="M153.3,146.3l-46.5-26.9c-0.8-0.5-1.9-0.2-2.3,0.6c0,0,0,0,0,0l-26.9,46.5c-0.5,0.8-0.2,1.9,0.6,2.4
	c0,0,0,0,0,0c0.3,0.2,0.6,0.2,0.9,0.2c0.6,0,1.2-0.3,1.5-0.9l26-45l45,26c0.8,0.5,1.9,0.2,2.4-0.6
	C154.4,147.8,154.1,146.8,153.3,146.3L153.3,146.3z"/>
<path class="st0" d="M72.7,99.7L26.1,72.8c-0.8-0.5-1.9-0.2-2.4,0.6c-0.5,0.8-0.2,1.9,0.6,2.4l45,26l-26,45
	c-0.5,0.8-0.2,1.9,0.6,2.4c0,0,0,0,0,0c0.3,0.2,0.6,0.2,0.9,0.2c0.6,0,1.2-0.3,1.5-0.9l26.9-46.5c0.2-0.4,0.3-0.9,0.2-1.3
	C73.3,100.3,73.1,99.9,72.7,99.7z"/>
<path class="st0" d="M107.6,22.1l-8-5.3c-0.6-0.4-1.3-0.4-1.9,0l-8,5.3c-0.8,0.5-1,1.5-0.6,2.3l8,13.9c0.5,0.8,1.5,1.1,2.3,0.7
	c0.3-0.2,0.5-0.4,0.7-0.7l8-13.9C108.6,23.6,108.4,22.6,107.6,22.1z M98.7,34L93,24.1l5.7-3.7l5.7,3.7L98.7,34z"/>
<path class="st0" d="M100.2,149.8c-0.5-0.8-1.5-1.1-2.3-0.7c-0.3,0.2-0.5,0.4-0.7,0.7l-8,13.9c-0.5,0.8-0.2,1.8,0.6,2.3l8,5.3
	c0.3,0.2,0.6,0.3,1,0.3c0.4,0,0.7-0.1,1-0.3l8-5.3c0.8-0.5,1-1.5,0.6-2.3L100.2,149.8z M98.7,167.8L93,164l5.7-9.9l5.7,9.9
	L98.7,167.8z"/>
<path class="st0" d="M170.7,85.1c-0.5-0.8-1.5-1-2.3-0.6l-13.9,8c-0.8,0.5-1.1,1.6-0.6,2.4c0.2,0.3,0.4,0.5,0.6,0.6l13.9,8
	c0.3,0.2,0.6,0.2,0.9,0.2c0.6,0,1.1-0.3,1.4-0.8l5.3-8c0.4-0.6,0.4-1.3,0-1.9L170.7,85.1z M168.7,99.8l-9.9-5.7l9.9-5.7l3.7,5.7
	L168.7,99.8z"/>
<path class="st0" d="M43,92.6l-13.9-8c-0.8-0.5-1.8-0.2-2.3,0.6l-5.3,8c-0.4,0.6-0.4,1.3,0,1.9l5.3,8c0.3,0.5,0.9,0.8,1.4,0.8
	c0.3,0,0.6-0.1,0.9-0.2l13.9-8c0.8-0.5,1.1-1.5,0.6-2.4C43.5,93,43.3,92.7,43,92.6L43,92.6z M28.8,99.8L25,94.1l3.7-5.7l9.9,5.7
	L28.8,99.8z"/>
<path class="st0" d="M70.4,27.3l-9.5-0.6c-0.7,0-1.3,0.3-1.6,0.9L55,36.2c-0.4,0.8-0.1,1.8,0.7,2.3l13.9,8.1
	c0.3,0.2,0.6,0.2,0.9,0.2c1,0,1.7-0.8,1.7-1.7c0,0,0,0,0,0V29C72.1,28.1,71.4,27.3,70.4,27.3z M58.8,36.3l3-6.1l6.8,0.4V42
	L58.8,36.3z"/>
<path class="st0" d="M141.7,149.7l-13.9-8.1c-0.8-0.5-1.9-0.2-2.4,0.7c-0.1,0.3-0.2,0.6-0.2,0.8v16.1c0,0.9,0.7,1.7,1.6,1.7l9.5,0.6
	h0.1c0.7,0,1.2-0.4,1.5-1l4.3-8.5C142.8,151.1,142.5,150.1,141.7,149.7z M135.6,157.9l-6.8-0.4v-11.4l9.9,5.8L135.6,157.9z"/>
<path class="st0" d="M49.7,120.6L49.7,120.6l-16.1,0.1c-0.9,0-1.7,0.7-1.7,1.6l-0.6,9.5c0,0.7,0.3,1.3,1,1.6l8.5,4.3
	c0.2,0.1,0.5,0.2,0.8,0.2c0.6,0,1.2-0.3,1.5-0.9l8.1-13.9c0.5-0.8,0.2-1.9-0.7-2.4C50.3,120.7,50,120.6,49.7,120.6L49.7,120.6z
	 M40.9,134l-6.1-3l0.4-6.8h11.4L40.9,134z"/>
<path class="st0" d="M43.1,51c-0.5-0.8-1.5-1.1-2.3-0.7l-8.5,4.3c-0.6,0.3-1,1-1,1.6l0.6,9.5c0.1,0.9,0.8,1.6,1.7,1.6h16.1l0,0
	c1,0,1.7-0.8,1.7-1.7c0-0.3-0.1-0.6-0.2-0.9L43.1,51z M35.3,64l-0.4-6.8l6.1-3.1l5.7,9.9L35.3,64z"/>
<path class="st0" d="M163.8,120.7l-16.1-0.1l0,0c-1,0-1.7,0.8-1.7,1.8c0,0.3,0.1,0.6,0.2,0.8l8.1,13.9c0.3,0.5,0.9,0.9,1.5,0.9
	c0.3,0,0.5-0.1,0.8-0.2l8.6-4.3c0.6-0.3,1-0.9,1-1.6l-0.6-9.5C165.5,121.4,164.7,120.7,163.8,120.7z M156.4,134l-5.7-9.9h11.4
	l0.4,6.8L156.4,134z"/>
<path class="st0" d="M138.1,27.7c-0.3-0.6-1-1-1.6-0.9l-9.5,0.6c-0.9,0.1-1.6,0.8-1.6,1.7v16.1c0,0.9,0.7,1.7,1.7,1.7
	c0.3,0,0.6-0.1,0.9-0.2l13.9-8.1c0.8-0.5,1.1-1.5,0.7-2.3L138.1,27.7z M128.7,42.1V30.6l6.8-0.4l3,6.1L128.7,42.1z"/>
<path class="st0" d="M71.3,141.6c-0.5-0.3-1.2-0.3-1.7,0l-13.9,8.1c-0.8,0.5-1.1,1.4-0.7,2.3l4.3,8.5c0.3,0.6,0.9,1,1.5,1h0.1
	l9.5-0.6c0.9-0.1,1.6-0.8,1.6-1.7v-16.1C72.1,142.5,71.8,141.9,71.3,141.6z M68.6,157.5l-6.8,0.4l-3-6.1l9.9-5.8L68.6,157.5z"/>
<path class="st0" d="M79,18.9c-0.9,0-1.7,0.8-1.7,1.7c0,0,0,0,0,0v52h-52c-1,0-1.7,0.8-1.7,1.7c0,1,0.8,1.7,1.7,1.7H79
	c1,0,1.7-0.8,1.7-1.7V20.6C80.7,19.6,80,18.9,79,18.9C79,18.9,79,18.9,79,18.9z"/>
<path class="st0" d="M172.1,72.6h-52v-52c0.1-1-0.6-1.8-1.6-1.9c-1-0.1-1.8,0.6-1.9,1.6c0,0.1,0,0.2,0,0.3v53.7c0,1,0.8,1.7,1.7,1.7
	h53.7c1,0,1.7-0.8,1.7-1.7C173.9,73.4,173.1,72.6,172.1,72.6L172.1,72.6L172.1,72.6z"/>
<path class="st0" d="M172.1,111.9h-53.7c-1,0-1.7,0.8-1.7,1.7l0,0v53.7c-0.1,1,0.6,1.8,1.6,1.9s1.8-0.6,1.9-1.6c0-0.1,0-0.2,0-0.3
	v-52h52c1,0,1.7-0.8,1.7-1.7C173.8,112.7,173,112,172.1,111.9L172.1,111.9z"/>
<path class="st0" d="M79,111.9H25.3c-1,0-1.7,0.8-1.7,1.7c0,1,0.8,1.7,1.7,1.7h52v52c-0.1,1,0.6,1.8,1.6,1.9s1.8-0.6,1.9-1.6
	c0-0.1,0-0.2,0-0.3v-53.7C80.7,112.7,80,111.9,79,111.9L79,111.9z"/>
<path class="st0" d="M151.6,38.8l-45,26l-26-45.1c-0.5-0.8-1.5-1.1-2.4-0.6c-0.8,0.5-1.1,1.5-0.6,2.4L104.4,68
	c0.3,0.5,0.9,0.9,1.5,0.9c0.3,0,0.6-0.1,0.9-0.2l46.5-26.9c0.8-0.5,1.1-1.5,0.6-2.4C153.5,38.6,152.4,38.3,151.6,38.8z"/>
<path class="st0" d="M171.2,72.8l-46.5,26.9c-0.4,0.2-0.7,0.6-0.8,1.1c-0.1,0.4-0.1,0.9,0.2,1.3l26.9,46.5c0.3,0.5,0.9,0.9,1.5,0.9
	c0.3,0,0.6-0.1,0.9-0.2c0.8-0.5,1.1-1.5,0.6-2.3c0,0,0,0,0,0l-26-45l45-26c0.8-0.5,1.1-1.5,0.6-2.3c0,0,0,0,0,0
	C173.1,72.7,172.1,72.4,171.2,72.8z"/>
<path class="st0" d="M93,120c-0.5-0.8-1.5-1.1-2.3-0.6c0,0,0,0,0,0l-46.5,26.9c-0.8,0.5-1.1,1.5-0.6,2.3c0,0,0,0,0,0
	c0.5,0.8,1.5,1.1,2.4,0.6l45-26l26,45c0.3,0.5,0.9,0.9,1.5,0.9c0.3,0,0.6-0.1,0.9-0.2c0.8-0.5,1.1-1.5,0.6-2.3c0,0,0,0,0,0L93,120z"
	/>
<path class="st0" d="M46.5,39.4c-0.5-0.8-1.5-1.1-2.4-0.6c-0.8,0.5-1.1,1.5-0.6,2.4l26,45l-45,26c-0.8,0.5-1.1,1.5-0.6,2.4
	c0.3,0.5,0.9,0.8,1.5,0.9c0.3,0,0.6-0.1,0.9-0.2l46.5-26.8c0.4-0.2,0.7-0.6,0.8-1.1c0.1-0.4,0.1-0.9-0.2-1.3L46.5,39.4z"/>
<path class="st0" d="M113.9,89.2l-2.8-1.6v-3.3c0-1-0.8-1.7-1.7-1.7h-3.3l-1.6-2.8c-0.5-0.8-1.5-1.1-2.3-0.6c0,0,0,0,0,0l-2.8,1.6
	l-2.8-1.6c-0.8-0.5-1.9-0.2-2.4,0.6c0,0,0,0,0,0l-1.6,2.8h-3.3c-0.9,0-1.7,0.8-1.7,1.7c0,0,0,0,0,0v3.3l-2.8,1.6
	c-0.8,0.5-1.1,1.5-0.6,2.4l1.6,2.8L84,97.2c-0.5,0.8-0.2,1.9,0.6,2.3c0,0,0,0,0,0l2.8,1.6v3.3c0,0.9,0.8,1.7,1.7,1.7c0,0,0,0,0,0
	h3.3l1.6,2.8c0.3,0.5,0.9,0.9,1.5,0.9c0.3,0,0.6-0.1,0.9-0.2l2.9-1.6l2.8,1.6c0.8,0.5,1.9,0.2,2.4-0.6l1.6-2.8h3.3
	c1,0,1.7-0.8,1.7-1.7v-3.3l2.8-1.6c0.8-0.5,1.1-1.5,0.6-2.4l-1.6-2.8l1.6-2.8C115,90.8,114.8,89.7,113.9,89.2
	C113.9,89.2,113.9,89.2,113.9,89.2z M109.4,95.2l1.3,2.2l-2.2,1.3c-0.5,0.3-0.9,0.9-0.9,1.5v2.5h-2.5c-0.6,0-1.2,0.3-1.5,0.9
	l-1.3,2.2l-2.2-1.3c-0.3-0.1-0.6-0.2-0.9-0.2c-0.3,0-0.6,0.1-0.9,0.2l-2.2,1.3l-1.2-2.1c-0.3-0.5-0.9-0.9-1.5-0.9h-2.6v-2.5
	c0-0.6-0.3-1.2-0.9-1.5l-2.2-1.3l1.3-2.2c0.3-0.5,0.3-1.2,0-1.7l-1.3-2.2l2.2-1.3c0.5-0.3,0.9-0.9,0.9-1.5V86h2.5
	c0.6,0,1.2-0.3,1.5-0.9l1.3-2.1l2.2,1.3c0.5,0.3,1.2,0.3,1.7,0l2.2-1.3l1.3,2.2c0.3,0.5,0.9,0.9,1.5,0.9h2.5v2.5
	c0,0.6,0.3,1.2,0.9,1.5l2.2,1.3l-1.3,2.2C109.1,94,109.1,94.7,109.4,95.2L109.4,95.2z"/>
<path class="st0" d="M146.2,65.5c-0.5,0.8-0.2,1.9,0.7,2.4c0.3,0.1,0.5,0.2,0.8,0.2l0,0l16.1-0.1c0.9,0,1.7-0.7,1.7-1.6l0.6-9.5
	c0-0.7-0.3-1.3-0.9-1.6l-8.6-4.3c-0.8-0.4-1.8-0.1-2.3,0.7L146.2,65.5z M150.7,64.6l5.7-9.9l6.1,3.1l-0.4,6.8L150.7,64.6z"/>
<circle class="st0" cx="99.2" cy="94.1" r="4.9"/>
<circle class="st0" cx="137.2" cy="83.6" r="3.2"/>
<circle class="st0" cx="137.2" cy="104.5" r="3.2"/>
<circle class="st0" cx="127.3" cy="122.5" r="3.2"/>
<circle class="st0" cx="68.6" cy="123.1" r="3.2"/>
<circle class="st0" cx="109.2" cy="133.5" r="3.2"/>
<circle class="st0" cx="58.2" cy="105" r="3.2"/>
<circle class="st0" cx="58.2" cy="83.1" r="3.2"/>
<circle class="st0" cx="69.2" cy="64.9" r="3.2"/>
<circle class="st0" cx="87.3" cy="54.5" r="3.2"/>
<circle class="st0" cx="87.8" cy="134.1" r="3.2"/>
<circle class="st0" cx="108.7" cy="55.1" r="3.2"/>
<circle class="st0" cx="126.8" cy="65.5" r="3.2"/>
</svg>
