<?xml version="1.0" encoding="utf-8"?>
<!-- Generator: Adobe Illustrator 22.1.0, SVG Export Plug-In . SVG Version: 6.00 Build 0)  -->
<svg version="1.1" id="Capa_1" xmlns="http://www.w3.org/2000/svg" xmlns:xlink="http://www.w3.org/1999/xlink" x="0px" y="0px"
	 viewBox="0 0 186.8 193" style="enable-background:new 0 0 186.8 193;" xml:space="preserve">
<style type="text/css">
	.st0{fill:#FFFFFF;}
</style>
<title>horizontal-white-transparent</title>
<g>
	<path class="st0" d="M168.6,76.4l1.3-22.9c0-0.7-0.3-1.3-0.9-1.6l-20.5-10.3L138.1,21c-0.3-0.6-0.9-1-1.6-1l-22.9,1.4L94.3,8.7
		c-0.6-0.4-1.3-0.4-1.9,0L73.2,21.3L50.3,20c-0.7,0-1.3,0.4-1.6,1L38.4,41.5L17.8,51.8c-0.6,0.3-1,1-1,1.6l1.4,22.9L5.6,95.6
		c-0.4,0.6-0.4,1.3,0,1.9l12.6,19.2l-1.4,22.9c0,0.7,0.3,1.3,1,1.6l20.5,10.3l10.3,20.6c0.3,0.6,1,1,1.6,1l22.9-1.4l19.2,12.6
		c0.3,0.2,0.6,0.3,1,0.3c0.4,0,0.7-0.1,1-0.3l19.2-12.6l22.9,1.4c0.7,0,1.3-0.3,1.6-1l10.2-20.6l20.6-10.3c0.6-0.3,1-1,0.9-1.6
		l-1.3-22.9l12.6-19.1c0.4-0.6,0.4-1.3,0-1.9L168.6,76.4z M165.4,115.2c-0.2,0.3-0.3,0.6-0.3,1l1.3,22.4l-20,10
		c-0.3,0.2-0.6,0.4-0.8,0.8l-10,20l-22.4-1.3c-0.4,0-0.7,0.1-1,0.3l-18.9,12.4l-18.7-12.3c-0.3-0.2-0.6-0.3-1-0.3h-0.1l-22.4,1.3
		l-10-20c-0.2-0.3-0.4-0.6-0.8-0.8l-20-10l1.2-22.4c0-0.4-0.1-0.7-0.3-1L9.1,96.5l12.3-18.7c0.2-0.3,0.3-0.7,0.3-1.1l-1.3-22.4
		l20-10c0.3-0.2,0.6-0.4,0.8-0.8l10-20l22.4,1.3c0.4,0,0.7-0.1,1-0.3l18.8-12.4l18.7,12.3c0.3,0.2,0.6,0.3,1,0.3l22.4-1.3l10,20
		c0.2,0.3,0.4,0.6,0.8,0.8l20,10L165,76.7c0,0.4,0.1,0.7,0.3,1.1l12.4,18.8L165.4,115.2z"/>
	<path class="st0" d="M121.1,87.8l-6.3-3.7v-7.3c0-0.9-0.8-1.7-1.7-1.7c0,0,0,0,0,0h-7.3l-3.7-6.3c-0.5-0.8-1.5-1.1-2.4-0.6
		l-6.3,3.6l-6.3-3.6c-0.8-0.5-1.9-0.2-2.4,0.6L81,75.1h-7.3c-0.9,0-1.7,0.8-1.7,1.7c0,0,0,0,0,0v7.3l-6.3,3.7
		c-0.8,0.5-1.1,1.5-0.6,2.3c0,0,0,0,0,0l3.6,6.3l-3.7,6.3c-0.5,0.8-0.2,1.9,0.6,2.3c0,0,0,0,0,0l6.3,3.7v7.3c0,0.9,0.7,1.7,1.7,1.7
		H81l3.7,6.3c0.5,0.8,1.5,1.1,2.4,0.6l6.3-3.6l6.3,3.6c0.3,0.1,0.6,0.2,0.9,0.2c0.6,0,1.2-0.3,1.5-0.9l3.7-6.3h7.3
		c0.9,0,1.7-0.8,1.7-1.7c0,0,0,0,0,0v-7.3l6.3-3.7c0.8-0.5,1.1-1.5,0.6-2.3c0,0,0,0,0,0l-3.6-6.4l3.7-6.3
		C122.2,89.4,122,88.3,121.1,87.8C121.1,87.8,121.1,87.8,121.1,87.8z M114.6,97.4l3.3,5.7l-5.7,3.3c-0.5,0.3-0.9,0.9-0.9,1.5v6.7
		h-6.6c-0.6,0-1.2,0.3-1.5,0.9l-3.3,5.7l-5.7-3.3c-0.5-0.3-1.2-0.3-1.7,0l-5.7,3.3l-3.3-5.7c-0.3-0.5-0.9-0.9-1.5-0.9h-6.6v-6.6
		c0-0.6-0.3-1.2-0.9-1.5l-5.7-3.3l3.3-5.7c0.3-0.5,0.3-1.2,0-1.7L68.9,90l5.7-3.3c0.5-0.3,0.9-0.9,0.9-1.5v-6.6H82
		c0.6,0,1.2-0.3,1.5-0.9l3.3-5.7l5.7,3.3c0.5,0.3,1.2,0.3,1.7,0l5.7-3.3l3.3,5.7c0.3,0.5,0.9,0.9,1.5,0.9h6.6v6.6
		c0,0.6,0.3,1.2,0.9,1.5l5.7,3.3l-3.3,5.7C114.3,96.2,114.3,96.9,114.6,97.4L114.6,97.4z"/>
	<path class="st0" d="M113.9,21.6c-0.8-0.5-1.9-0.2-2.4,0.6l-26,45.1l-45-26c-0.8-0.5-1.9-0.2-2.4,0.6c-0.5,0.8-0.2,1.9,0.6,2.4
		l46.5,26.9c0.3,0.2,0.6,0.2,0.9,0.2c0.6,0,1.2-0.3,1.5-0.9L114.6,24C115.1,23.2,114.8,22.1,113.9,21.6
		C113.9,21.6,113.9,21.6,113.9,21.6z"/>
	<path class="st0" d="M167.7,114.7l-45-26l26-45c0.5-0.8,0.2-1.9-0.6-2.4c-0.8-0.5-1.9-0.2-2.4,0.6l0,0l-26.9,46.6
		c-0.5,0.8-0.2,1.9,0.6,2.4l46.5,26.9c0.3,0.1,0.6,0.2,0.9,0.2c1,0,1.7-0.8,1.7-1.7C168.6,115.6,168.3,115.1,167.7,114.7
		L167.7,114.7z"/>
	<path class="st0" d="M148,148.8l-46.5-26.9c-0.8-0.5-1.9-0.2-2.3,0.6c0,0,0,0,0,0l-26.9,46.5c-0.5,0.8-0.2,1.9,0.6,2.4c0,0,0,0,0,0
		c0.3,0.2,0.6,0.2,0.9,0.2c0.6,0,1.2-0.3,1.5-0.9l26-45l45,26c0.8,0.5,1.9,0.2,2.4-0.6C149.1,150.3,148.8,149.3,148,148.8L148,148.8
		z"/>
	<path class="st0" d="M67.4,102.2L20.8,75.3C20,74.9,19,75.2,18.5,76c-0.5,0.8-0.2,1.9,0.6,2.4l45,26l-26,45
		c-0.5,0.8-0.2,1.9,0.6,2.4c0,0,0,0,0,0c0.3,0.2,0.6,0.2,0.9,0.2c0.6,0,1.2-0.3,1.5-0.9L68,104.6c0.2-0.4,0.3-0.9,0.2-1.3
		C68,102.8,67.8,102.5,67.4,102.2z"/>
	<path class="st0" d="M102.3,24.6l-8-5.3c-0.6-0.4-1.3-0.4-1.9,0l-8,5.3c-0.8,0.5-1,1.5-0.6,2.3l8,13.9c0.5,0.8,1.5,1.1,2.3,0.7
		c0.3-0.2,0.5-0.4,0.7-0.7l8-13.9C103.3,26.1,103.1,25.1,102.3,24.6z M93.4,36.5l-5.7-9.9l5.7-3.7l5.7,3.7L93.4,36.5z"/>
	<path class="st0" d="M94.9,152.3c-0.5-0.8-1.5-1.1-2.3-0.7c-0.3,0.2-0.5,0.4-0.7,0.7l-8,13.9c-0.5,0.8-0.2,1.8,0.6,2.3l8,5.3
		c0.3,0.2,0.6,0.3,1,0.3c0.4,0,0.7-0.1,1-0.3l8-5.3c0.8-0.5,1-1.5,0.6-2.3L94.9,152.3z M93.4,170.3l-5.7-3.8l5.7-9.9l5.7,9.9
		L93.4,170.3z"/>
	<path class="st0" d="M165.4,87.7c-0.5-0.8-1.5-1-2.3-0.6l-13.9,8c-0.8,0.5-1.1,1.6-0.6,2.4c0.2,0.3,0.4,0.5,0.6,0.6l13.9,8
		c0.3,0.2,0.6,0.2,0.9,0.2c0.6,0,1.1-0.3,1.4-0.8l5.3-8c0.4-0.6,0.4-1.3,0-1.9L165.4,87.7z M163.4,102.3l-9.9-5.7l9.9-5.7l3.7,5.7
		L163.4,102.3z"/>
	<path class="st0" d="M37.7,95.1l-13.9-8c-0.8-0.5-1.8-0.2-2.3,0.6l-5.3,8c-0.4,0.6-0.4,1.3,0,1.9l5.3,8c0.3,0.5,0.9,0.8,1.4,0.8
		c0.3,0,0.6-0.1,0.9-0.2l13.9-8c0.8-0.5,1.1-1.5,0.6-2.4C38.2,95.5,38,95.2,37.7,95.1L37.7,95.1z M23.5,102.3l-3.8-5.7l3.7-5.7
		l9.9,5.7L23.5,102.3z"/>
	<path class="st0" d="M65.1,29.8l-9.5-0.6c-0.7,0-1.3,0.3-1.6,0.9l-4.3,8.6c-0.4,0.8-0.1,1.8,0.7,2.3l13.9,8.1
		c0.3,0.2,0.6,0.2,0.9,0.2c1,0,1.7-0.8,1.7-1.7c0,0,0,0,0,0V31.5C66.8,30.6,66.1,29.8,65.1,29.8z M53.5,38.8l3-6.1l6.8,0.4v11.4
		L53.5,38.8z"/>
	<path class="st0" d="M136.4,152.2l-13.9-8.1c-0.8-0.5-1.9-0.2-2.4,0.7c-0.1,0.3-0.2,0.6-0.2,0.8v16.1c0,0.9,0.7,1.7,1.6,1.7
		l9.5,0.6h0.1c0.7,0,1.2-0.4,1.5-1l4.3-8.5C137.5,153.6,137.2,152.7,136.4,152.2z M130.2,160.4l-6.8-0.4v-11.4l9.9,5.8L130.2,160.4z
		"/>
	<path class="st0" d="M44.4,123.2L44.4,123.2l-16.1,0.1c-0.9,0-1.7,0.7-1.7,1.6l-0.6,9.5c0,0.7,0.3,1.3,1,1.6l8.6,4.3
		c0.2,0.1,0.5,0.2,0.8,0.2c0.6,0,1.2-0.3,1.5-0.9l8.1-13.9c0.5-0.8,0.2-1.9-0.7-2.4C45,123.2,44.7,123.2,44.4,123.2L44.4,123.2z
		 M35.6,136.5l-6.1-3l0.4-6.8h11.4L35.6,136.5z"/>
	<path class="st0" d="M37.8,53.5c-0.5-0.8-1.5-1.1-2.3-0.7L27,57.1c-0.6,0.3-1,1-1,1.6l0.6,9.5c0.1,0.9,0.8,1.6,1.7,1.6h16.1l0,0
		c1,0,1.7-0.8,1.7-1.7c0-0.3-0.1-0.6-0.2-0.9L37.8,53.5z M30,66.5l-0.4-6.8l6.1-3.1l5.7,9.9L30,66.5z"/>
	<path class="st0" d="M158.5,123.2l-16.1-0.1l0,0c-1,0-1.7,0.8-1.7,1.8c0,0.3,0.1,0.6,0.2,0.8l8.1,13.9c0.3,0.5,0.9,0.9,1.5,0.9
		c0.3,0,0.5-0.1,0.8-0.2l8.6-4.3c0.6-0.3,1-0.9,1-1.6l-0.6-9.5C160.2,123.9,159.4,123.2,158.5,123.2z M151.1,136.5l-5.7-9.9h11.4
		l0.4,6.8L151.1,136.5z"/>
	<path class="st0" d="M132.8,30.2c-0.3-0.6-1-1-1.6-0.9l-9.5,0.6c-0.9,0.1-1.6,0.8-1.6,1.7v16.1c0,0.9,0.7,1.7,1.7,1.7
		c0.3,0,0.6-0.1,0.9-0.2l13.9-8.1c0.8-0.5,1.1-1.5,0.7-2.3L132.8,30.2z M123.4,44.6V33.2l6.8-0.4l3,6.1L123.4,44.6z"/>
	<path class="st0" d="M66,144.1c-0.5-0.3-1.2-0.3-1.7,0l-13.9,8.1c-0.8,0.5-1.1,1.4-0.7,2.3L54,163c0.3,0.6,0.9,1,1.5,1h0.1l9.5-0.6
		c0.9-0.1,1.6-0.8,1.6-1.7v-16.1C66.8,145,66.5,144.4,66,144.1z M63.3,160l-6.8,0.4l-3-6.1l9.9-5.8L63.3,160z"/>
	<path class="st0" d="M73.7,21.4c-0.9,0-1.7,0.8-1.7,1.7c0,0,0,0,0,0v52H20c-1,0-1.7,0.8-1.7,1.7c0,1,0.8,1.7,1.7,1.7h53.7
		c1,0,1.7-0.8,1.7-1.7V23.1C75.4,22.2,74.7,21.4,73.7,21.4C73.7,21.4,73.7,21.4,73.7,21.4z"/>
	<path class="st0" d="M166.8,75.1h-52v-52c0.1-1-0.6-1.8-1.6-1.9c-1-0.1-1.8,0.6-1.9,1.6c0,0.1,0,0.2,0,0.3v53.7
		c0,1,0.8,1.7,1.7,1.7h53.7c1,0,1.7-0.8,1.7-1.7C168.6,75.9,167.8,75.1,166.8,75.1L166.8,75.1L166.8,75.1z"/>
	<path class="st0" d="M166.8,114.5h-53.7c-1,0-1.7,0.8-1.7,1.7l0,0v53.7c-0.1,1,0.6,1.8,1.6,1.9s1.8-0.6,1.9-1.6c0-0.1,0-0.2,0-0.3
		v-52h52c1,0,1.7-0.8,1.7-1.7C168.5,115.2,167.7,114.5,166.8,114.5L166.8,114.5z"/>
	<path class="st0" d="M73.7,114.5H20c-1,0-1.7,0.8-1.7,1.7c0,1,0.8,1.7,1.7,1.7h52v52c-0.1,1,0.6,1.8,1.6,1.9s1.8-0.6,1.9-1.6
		c0-0.1,0-0.2,0-0.3v-53.7C75.4,115.2,74.7,114.5,73.7,114.5L73.7,114.5z"/>
	<path class="st0" d="M146.3,41.3l-45,26l-26-45.1c-0.5-0.8-1.5-1.1-2.4-0.6c-0.8,0.5-1.1,1.5-0.6,2.4l26.8,46.6
		c0.3,0.5,0.9,0.9,1.5,0.9c0.3,0,0.6-0.1,0.9-0.2L148,44.3c0.8-0.5,1.1-1.5,0.6-2.4C148.2,41.1,147.1,40.8,146.3,41.3z"/>
	<path class="st0" d="M165.9,75.3l-46.5,26.9c-0.4,0.2-0.7,0.6-0.8,1.1c-0.1,0.4-0.1,0.9,0.2,1.3l26.9,46.5c0.3,0.5,0.9,0.9,1.5,0.9
		c0.3,0,0.6-0.1,0.9-0.2c0.8-0.5,1.1-1.5,0.6-2.3c0,0,0,0,0,0l-26-45l45-26c0.8-0.5,1.1-1.5,0.6-2.3c0,0,0,0,0,0
		C167.8,75.2,166.8,74.9,165.9,75.3z"/>
	<path class="st0" d="M87.7,122.5c-0.5-0.8-1.5-1.1-2.3-0.6c0,0,0,0,0,0l-46.5,26.9c-0.8,0.5-1.1,1.5-0.6,2.3c0,0,0,0,0,0
		c0.5,0.8,1.5,1.1,2.4,0.6l45-26l26,45c0.3,0.5,0.9,0.9,1.5,0.9c0.3,0,0.6-0.1,0.9-0.2c0.8-0.5,1.1-1.5,0.6-2.3c0,0,0,0,0,0
		L87.7,122.5z"/>
	<path class="st0" d="M41.1,41.9c-0.5-0.8-1.5-1.1-2.4-0.6c-0.8,0.5-1.1,1.5-0.6,2.4l26,45l-45,26c-0.8,0.5-1.1,1.5-0.6,2.4
		c0.3,0.5,0.9,0.8,1.5,0.9c0.3,0,0.6-0.1,0.9-0.2l46.5-26.8c0.4-0.2,0.7-0.6,0.8-1.1c0.1-0.4,0.1-0.9-0.2-1.3L41.1,41.9z"/>
	<path class="st0" d="M108.6,91.7l-2.8-1.6v-3.3c0-1-0.8-1.7-1.7-1.7h-3.3l-1.6-2.8c-0.5-0.8-1.5-1.1-2.3-0.6c0,0,0,0,0,0L94,83.2
		l-2.8-1.6c-0.8-0.5-1.9-0.2-2.4,0.6c0,0,0,0,0,0l-1.6,2.8h-3.3c-0.9,0-1.7,0.8-1.7,1.7c0,0,0,0,0,0V90l-2.8,1.6
		c-0.8,0.5-1.1,1.5-0.6,2.4l1.6,2.8l-1.7,2.8c-0.5,0.8-0.2,1.9,0.6,2.3c0,0,0,0,0,0l2.8,1.6v3.3c0,0.9,0.8,1.7,1.7,1.7c0,0,0,0,0,0
		h3.3l1.6,2.8c0.3,0.5,0.9,0.9,1.5,0.9c0.3,0,0.6-0.1,0.9-0.2l2.9-1.6l2.8,1.6c0.8,0.5,1.9,0.2,2.4-0.6l1.6-2.8h3.3
		c1,0,1.7-0.8,1.7-1.7v-3.3l2.8-1.6c0.8-0.5,1.1-1.5,0.6-2.4l-1.6-2.8l1.6-2.8C109.7,93.3,109.5,92.2,108.6,91.7
		C108.6,91.7,108.6,91.7,108.6,91.7z M104.1,97.7l1.3,2.2l-2.2,1.3c-0.5,0.3-0.9,0.9-0.9,1.5v2.5h-2.5c-0.6,0-1.2,0.3-1.5,0.9
		l-1.3,2.2l-2.2-1.3c-0.3-0.1-0.6-0.2-0.9-0.2c-0.3,0-0.6,0.1-0.9,0.2l-2.2,1.3l-1.2-2.1c-0.3-0.5-0.9-0.9-1.5-0.9h-2.6v-2.5
		c0-0.6-0.3-1.2-0.9-1.5l-2.2-1.3l1.3-2.2c0.3-0.5,0.3-1.2,0-1.7l-1.3-2.2l2.2-1.3c0.5-0.3,0.9-0.9,0.9-1.5v-2.5h2.5
		c0.6,0,1.2-0.3,1.5-0.9l1.3-2.1l2.2,1.3c0.5,0.3,1.2,0.3,1.7,0l2.2-1.3l1.3,2.2c0.3,0.5,0.9,0.9,1.5,0.9h2.5v2.5
		c0,0.6,0.3,1.2,0.9,1.5l2.2,1.3l-1.3,2.2C103.8,96.6,103.8,97.2,104.1,97.7L104.1,97.7z"/>
	<path class="st0" d="M140.9,68c-0.5,0.8-0.2,1.9,0.7,2.4c0.3,0.1,0.5,0.2,0.8,0.2l0,0l16.1-0.1c0.9,0,1.7-0.7,1.7-1.6l0.6-9.5
		c0-0.7-0.3-1.3-0.9-1.6l-8.6-4.3c-0.8-0.4-1.8-0.1-2.3,0.7L140.9,68z M145.4,67.1l5.7-9.9l6.1,3.1l-0.4,6.8L145.4,67.1z"/>
	<circle class="st0" cx="93.8" cy="96.7" r="4.9"/>
	<circle class="st0" cx="131.9" cy="86.1" r="3.2"/>
	<circle class="st0" cx="131.9" cy="107" r="3.2"/>
	<circle class="st0" cx="122" cy="125.1" r="3.2"/>
	<circle class="st0" cx="63.3" cy="125.6" r="3.2"/>
	<circle class="st0" cx="103.9" cy="136" r="3.2"/>
	<circle class="st0" cx="52.9" cy="107.5" r="3.2"/>
	<circle class="st0" cx="52.9" cy="85.6" r="3.2"/>
	<circle class="st0" cx="63.9" cy="67.5" r="3.2"/>
	<circle class="st0" cx="82" cy="57" r="3.2"/>
	<circle class="st0" cx="82.5" cy="136.6" r="3.2"/>
	<circle class="st0" cx="103.4" cy="57.6" r="3.2"/>
	<circle class="st0" cx="121.5" cy="68" r="3.2"/>
</g>
</svg>
